# xmcd
#
# Track frame offsets:
#	150
#	14940
#	34579
#	52292
#	70148
#	84299
#	106042
#	120594
#	137358
#	151909
#	165457
#	182286
#	200684
#	219099
#	233944
#	262478
#
# Disc length: 3505 seconds
#
# Revision: 1
# Processed by: cddbd v1.5.2PL0 Copyright (c) Steve Scherf et al.
# Submitted via: audiograbber 1.83.01
#
DISCID=d70daf10
DTITLE=Various Artist - Best-22 Gal Country Disk1
DYEAR=2003
DGENRE=Karaoke
TTITLE0=Chely Wright - Jezebel
TTITLE1=Chely Wright - One Night in Las Vegas
TTITLE2=Chely Wright - I Could Never Love You Enough
TTITLE3=Deanna Carter - Strawberry Wine
TTITLE4=Dixie Chicks - If I Fall You're Going Down With Me
TTITLE5=Dixie Chicks - Travelin Soldier
TTITLE6=Dolly Parton - Hello God
TTITLE7=Emmylou Harris - Boulder To Birmingham
TTITLE8=Forester Sisters - Men
TTITLE9=Jamie O'Neal - Frantic
TTITLE10=Jamie O'Neal - Sanctuary
TTITLE11=Jamie O'Neal - Shiver
TTITLE12=Jo Dee Messina - Burn
TTITLE13=Jo Dee Messina - Dare To Dream
TTITLE14=Jo Dee Messina - Downtime
TTITLE15=Data Track - Data Track
EXTD=
EXTT0=
EXTT1=
EXTT2=
EXTT3=
EXTT4=
EXTT5=
EXTT6=
EXTT7=
EXTT8=
EXTT9=
EXTT10=
EXTT11=
EXTT12=
EXTT13=
EXTT14=
EXTT15=
PLAYORDER=
